<?xml version="1.0" encoding="UTF-8" standalone="no"?>
<svg
   xmlns:dc="http://purl.org/dc/elements/1.1/"
   xmlns:cc="http://creativecommons.org/ns#"
   xmlns:rdf="http://www.w3.org/1999/02/22-rdf-syntax-ns#"
   xmlns:svg="http://www.w3.org/2000/svg"
   xmlns="http://www.w3.org/2000/svg"
   xmlns:xlink="http://www.w3.org/1999/xlink"
   width="48"
   height="90"
   viewBox="0 0 12.7 23.8125"
   version="1.1"
   id="svg8">
  <defs
     id="defs2">
    <linearGradient
       xlink:href="#linearGradient4514"
       id="linearGradient4516"
       x1="10.537858"
       y1="12.812696"
       x2="10.537858"
       y2="19.261913"
       gradientUnits="userSpaceOnUse"
       gradientTransform="matrix(1,0,0,2,3.6302079e-8,-12.878842)" />
    <linearGradient
       id="linearGradient4514">
      <stop
         style="stop-color:#0040ff;stop-opacity:1"
         offset="0"
         id="stop4510" />
      <stop
         id="stop4518"
         offset="0.44270831"
         style="stop-color:#5040ff;stop-opacity:1" />
      <stop
         style="stop-color:#ffffff;stop-opacity:1"
         offset="0.57552075"
         id="stop4520" />
      <stop
         style="stop-color:#ffffff;stop-opacity:1"
         offset="1"
         id="stop4512" />
    </linearGradient>
  </defs>
  <metadata
     id="metadata5">
    <rdf:RDF>
      <cc:Work
         rdf:about="">
        <dc:format>image/svg+xml</dc:format>
        <dc:type
           rdf:resource="http://purl.org/dc/dcmitype/StillImage" />
        <dc:title></dc:title>
      </cc:Work>
    </rdf:RDF>
  </metadata>
  <g
     id="layer1"
     transform="rotate(90,14.056527,11.522315)">
    <g
       id="g4525" />
    <path
       style="opacity:1;fill:url(#linearGradient4516);fill-opacity:1;stroke:none;stroke-width:7.8464427;stroke-linecap:round;stroke-linejoin:miter;stroke-miterlimit:4;stroke-dasharray:none;stroke-opacity:1"
       d="m 3.8571286,12.878842 c -0.7328958,0 -1.3229167,0.590021 -1.3229167,1.322917 V 25.578842 H 26.346712 V 14.201759 c 0,-0.732896 -0.59002,-1.322917 -1.322916,-1.322917 z"
       id="rect3703" />
    <g
       aria-label="SETTINGS"
       style="font-style:normal;font-variant:normal;font-weight:normal;font-stretch:normal;font-size:4.23333311px;line-height:6.61458302px;font-family:'Roboto Condensed';-inkscape-font-specification:'Roboto Condensed, ';letter-spacing:0px;word-spacing:0px;fill:#ffffff;fill-opacity:1;stroke:none;stroke-width:0.26458332"
       id="text3701">
      <path
         d="m 7.0693355,16.810385 q 0,-0.183969 -0.095085,-0.276986 -0.093018,-0.09509 -0.3410644,-0.196371 -0.4526855,-0.171565 -0.651123,-0.401009 -0.1984375,-0.23151 -0.1984375,-0.545703 0,-0.380338 0.2687174,-0.609782 0.2707845,-0.23151 0.686263,-0.23151 0.2769857,0 0.4940267,0.117822 0.217041,0.115755 0.3327962,0.328662 0.1178223,0.212907 0.1178223,0.483692 H 7.0776037 q 0,-0.21084 -0.09095,-0.320394 -0.088884,-0.111621 -0.2583822,-0.111621 -0.1591634,0 -0.2480468,0.09508 -0.088884,0.09302 -0.088884,0.252181 0,0.124024 0.099219,0.22531 0.099219,0.09922 0.3513997,0.206705 0.4402832,0.159164 0.6387207,0.390674 0.2005045,0.231511 0.2005045,0.589111 0,0.392741 -0.2501139,0.613916 -0.2501139,0.221176 -0.6800618,0.221176 -0.2914551,0 -0.5312337,-0.11989 -0.2397787,-0.119889 -0.3762044,-0.343131 -0.1343587,-0.223242 -0.1343587,-0.5271 h 0.6097818 q 0,0.260449 0.1012858,0.378272 0.1012858,0.117822 0.3307292,0.117822 0.3183268,0 0.3183268,-0.33693 z"
         style="font-style:normal;font-variant:normal;font-weight:bold;font-stretch:normal;font-size:4.23333311px;line-height:6.61458302px;font-family:'Roboto Condensed';-inkscape-font-specification:'Roboto Condensed, Bold';fill:#ffffff;stroke-width:0.26458332"
         id="path5071" />
      <path
         d="M 9.6428217,16.297754 H 8.6961095 v 0.797884 h 1.120345 V 17.6 H 8.0883947 v -3.009635 h 1.7239257 v 0.506429 H 8.6961095 v 0.711068 h 0.9467122 z"
         style="font-style:normal;font-variant:normal;font-weight:bold;font-stretch:normal;font-size:4.23333311px;line-height:6.61458302px;font-family:'Roboto Condensed';-inkscape-font-specification:'Roboto Condensed, Bold';fill:#ffffff;stroke-width:0.26458332"
         id="path5073" />
      <path
         d="m 12.154296,15.096794 h -0.74414 V 17.6 h -0.609782 v -2.503206 h -0.731738 v -0.506429 h 2.08566 z"
         style="font-style:normal;font-variant:normal;font-weight:bold;font-stretch:normal;font-size:4.23333311px;line-height:6.61458302px;font-family:'Roboto Condensed';-inkscape-font-specification:'Roboto Condensed, Bold';fill:#ffffff;stroke-width:0.26458332"
         id="path5075" />
      <path
         d="M 14.485937,15.096794 H 13.741796 V 17.6 h -0.609782 v -2.503206 h -0.731738 v -0.506429 h 2.085661 z"
         style="font-style:normal;font-variant:normal;font-weight:bold;font-stretch:normal;font-size:4.23333311px;line-height:6.61458302px;font-family:'Roboto Condensed';-inkscape-font-specification:'Roboto Condensed, Bold';fill:#ffffff;stroke-width:0.26458332"
         id="path5077" />
      <path
         d="m 15.469856,17.6 h -0.607715 v -3.009635 h 0.607715 z"
         style="font-style:normal;font-variant:normal;font-weight:bold;font-stretch:normal;font-size:4.23333311px;line-height:6.61458302px;font-family:'Roboto Condensed';-inkscape-font-specification:'Roboto Condensed, Bold';fill:#ffffff;stroke-width:0.26458332"
         id="path5079" />
      <path
         d="M 18.088817,17.6 H 17.481102 L 16.592268,15.625961 V 17.6 h -0.607715 v -3.009635 h 0.607715 l 0.890901,1.976107 v -1.976107 h 0.605648 z"
         style="font-style:normal;font-variant:normal;font-weight:bold;font-stretch:normal;font-size:4.23333311px;line-height:6.61458302px;font-family:'Roboto Condensed';-inkscape-font-specification:'Roboto Condensed, Bold';fill:#ffffff;stroke-width:0.26458332"
         id="path5081" />
      <path
         d="m 20.627163,17.258936 q -0.175699,0.190169 -0.432015,0.287321 -0.254248,0.09509 -0.558105,0.09509 -0.518831,0 -0.806152,-0.320394 -0.287321,-0.322461 -0.295589,-0.936377 v -0.541569 q 0,-0.622184 0.270784,-0.957048 0.272852,-0.33693 0.79375,-0.33693 0.489893,0 0.737939,0.241846 0.250114,0.241845 0.289388,0.75861 h -0.591178 q -0.02481,-0.287321 -0.119889,-0.390674 -0.09509,-0.10542 -0.297657,-0.10542 -0.245979,0 -0.3576,0.179834 -0.111622,0.179834 -0.115756,0.572575 v 0.545703 q 0,0.411344 0.121957,0.599446 0.124023,0.186036 0.405143,0.186036 0.179834,0 0.291455,-0.07235 l 0.05374,-0.03721 V 16.47552 h -0.425814 v -0.458886 h 1.035595 z"
         style="font-style:normal;font-variant:normal;font-weight:bold;font-stretch:normal;font-size:4.23333311px;line-height:6.61458302px;font-family:'Roboto Condensed';-inkscape-font-specification:'Roboto Condensed, Bold';fill:#ffffff;stroke-width:0.26458332"
         id="path5083" />
      <path
         d="m 22.332486,16.810385 q 0,-0.183969 -0.09509,-0.276986 -0.09302,-0.09509 -0.341064,-0.196371 -0.452686,-0.171565 -0.651123,-0.401009 -0.198438,-0.23151 -0.198438,-0.545703 0,-0.380338 0.268718,-0.609782 0.270784,-0.23151 0.686263,-0.23151 0.276985,0 0.494026,0.117822 0.217041,0.115755 0.332796,0.328662 0.117823,0.212907 0.117823,0.483692 h -0.605648 q 0,-0.21084 -0.09095,-0.320394 -0.08888,-0.111621 -0.258382,-0.111621 -0.159163,0 -0.248047,0.09508 -0.08888,0.09302 -0.08888,0.252181 0,0.124024 0.09922,0.22531 0.09922,0.09922 0.351399,0.206705 0.440284,0.159164 0.638721,0.390674 0.200505,0.231511 0.200505,0.589111 0,0.392741 -0.250114,0.613916 -0.250114,0.221176 -0.680062,0.221176 -0.291455,0 -0.531234,-0.11989 -0.239778,-0.119889 -0.376204,-0.343131 -0.134359,-0.223242 -0.134359,-0.5271 h 0.609782 q 0,0.260449 0.101286,0.378272 0.101286,0.117822 0.330729,0.117822 0.318327,0 0.318327,-0.33693 z"
         style="font-style:normal;font-variant:normal;font-weight:bold;font-stretch:normal;font-size:4.23333311px;line-height:6.61458302px;font-family:'Roboto Condensed';-inkscape-font-specification:'Roboto Condensed, Bold';fill:#ffffff;stroke-width:0.26458332"
         id="path5085" />
    </g>
  </g>
</svg>
