<?xml version="1.0" encoding="UTF-8" standalone="no"?>
<svg
   xmlns:dc="http://purl.org/dc/elements/1.1/"
   xmlns:cc="http://creativecommons.org/ns#"
   xmlns:rdf="http://www.w3.org/1999/02/22-rdf-syntax-ns#"
   xmlns:svg="http://www.w3.org/2000/svg"
   xmlns="http://www.w3.org/2000/svg"
   xmlns:xlink="http://www.w3.org/1999/xlink"
   id="svg8"
   version="1.1"
   viewBox="0 0 12.7 26.458333"
   height="100"
   width="48">
  <defs
     id="defs2">
    <linearGradient
       id="linearGradient4514">
      <stop
         id="stop4510"
         offset="0"
         style="stop-color:#ff0000;stop-opacity:1" />
      <stop
         style="stop-color:#ff2900;stop-opacity:1"
         offset="0.44270831"
         id="stop4518" />
      <stop
         id="stop4520"
         offset="0.57552075"
         style="stop-color:#ffffff;stop-opacity:1" />
      <stop
         id="stop4512"
         offset="1"
         style="stop-color:#ffffff;stop-opacity:1" />
    </linearGradient>
    <linearGradient
       gradientTransform="matrix(3.7795276,0,0,7.5590551,-9.5781237,-97.351877)"
       gradientUnits="userSpaceOnUse"
       y2="19.261913"
       x2="10.537858"
       y1="12.812696"
       x1="10.537858"
       id="linearGradient4516"
       xlink:href="#linearGradient4514" />
  </defs>
  <metadata
     id="metadata5">
    <rdf:RDF>
      <cc:Work
         rdf:about="">
        <dc:format>image/svg+xml</dc:format>
        <dc:type
           rdf:resource="http://purl.org/dc/dcmitype/StillImage" />
        <dc:title></dc:title>
      </cc:Work>
    </rdf:RDF>
  </metadata>
  <g
     transform="rotate(90,14.056527,11.522315)"
     id="layer1">
    <path
       id="rect3703"
       transform="matrix(0.26458333,0,0,0.26458333,2.5342119,12.878842)"
       d="M 5,0 C 2.2300001,0 0,2.2299994 0,5 V 48 H 100 V 5 C 100,2.2299994 97.770001,0 95,0 Z"
       style="opacity:1;fill:url(#linearGradient4516);fill-opacity:1;stroke:none;stroke-width:29.65584373;stroke-linecap:round;stroke-linejoin:miter;stroke-miterlimit:4;stroke-dasharray:none;stroke-opacity:1" />
    <g
       id="g4525" />
    <g
       aria-label="SCHEDULES"
       style="font-style:normal;font-variant:normal;font-weight:normal;font-stretch:normal;font-size:4.23333311px;line-height:6.61458302px;font-family:'Roboto Condensed';-inkscape-font-specification:'Roboto Condensed, ';letter-spacing:0px;word-spacing:0px;fill:#ffffff;fill-opacity:1;stroke:none;stroke-width:0.26458332"
       id="text3701">
      <path
         d="m 7.0693355,16.810385 q 0,-0.183969 -0.095085,-0.276986 -0.093018,-0.09509 -0.3410644,-0.196371 -0.4526855,-0.171565 -0.651123,-0.401009 -0.1984375,-0.23151 -0.1984375,-0.545703 0,-0.380338 0.2687174,-0.609782 0.2707845,-0.23151 0.686263,-0.23151 0.2769857,0 0.4940267,0.117822 0.217041,0.115755 0.3327962,0.328662 0.1178223,0.212907 0.1178223,0.483692 H 7.0776037 q 0,-0.21084 -0.09095,-0.320394 -0.088884,-0.111621 -0.2583822,-0.111621 -0.1591634,0 -0.2480468,0.09508 -0.088884,0.09302 -0.088884,0.252181 0,0.124024 0.099219,0.22531 0.099219,0.09922 0.3513997,0.206705 0.4402832,0.159164 0.6387207,0.390674 0.2005045,0.231511 0.2005045,0.589111 0,0.392741 -0.2501139,0.613916 -0.2501139,0.221176 -0.6800618,0.221176 -0.2914551,0 -0.5312337,-0.11989 -0.2397787,-0.119889 -0.3762044,-0.343131 -0.1343587,-0.223242 -0.1343587,-0.5271 h 0.6097818 q 0,0.260449 0.1012858,0.378272 0.1012858,0.117822 0.3307292,0.117822 0.3183268,0 0.3183268,-0.33693 z"
         style="font-style:normal;font-variant:normal;font-weight:bold;font-stretch:normal;font-size:4.23333311px;line-height:6.61458302px;font-family:'Roboto Condensed';-inkscape-font-specification:'Roboto Condensed, Bold';fill:#ffffff;stroke-width:0.26458332"
         id="path4973" />
      <path
         d="m 10.12858,16.597478 q -0.02274,0.514697 -0.2893878,0.77928 -0.2666504,0.264584 -0.7524089,0.264584 -0.5105631,0 -0.7834146,-0.334864 -0.2707845,-0.33693 -0.2707845,-0.959114 v -0.506429 q 0,-0.620117 0.2811198,-0.954981 0.2811197,-0.33693 0.7813476,-0.33693 0.4919596,0 0.7462076,0.274919 0.2563148,0.274918 0.2914548,0.789615 H 9.5229324 q -0.00827,-0.318326 -0.099219,-0.438216 -0.088883,-0.121956 -0.3286621,-0.121956 -0.2439128,0 -0.3451986,0.171566 -0.1012858,0.169498 -0.107487,0.560172 v 0.568441 q 0,0.448551 0.099219,0.615983 0.1012858,0.167432 0.3451985,0.167432 0.2397787,0 0.3307292,-0.115756 0.09095,-0.117822 0.1033529,-0.423746 z"
         style="font-style:normal;font-variant:normal;font-weight:bold;font-stretch:normal;font-size:4.23333311px;line-height:6.61458302px;font-family:'Roboto Condensed';-inkscape-font-specification:'Roboto Condensed, Bold';fill:#ffffff;stroke-width:0.26458332"
         id="path4975" />
      <path
         d="M 12.613183,17.6 H 12.007535 V 16.312224 H 11.110432 V 17.6 h -0.607714 v -3.009635 h 0.607714 v 1.217497 h 0.897103 v -1.217497 h 0.605648 z"
         style="font-style:normal;font-variant:normal;font-weight:bold;font-stretch:normal;font-size:4.23333311px;line-height:6.61458302px;font-family:'Roboto Condensed';-inkscape-font-specification:'Roboto Condensed, Bold';fill:#ffffff;stroke-width:0.26458332"
         id="path4977" />
      <path
         d="m 14.653368,16.297754 h -0.946712 v 0.797884 h 1.120345 V 17.6 h -1.72806 v -3.009635 h 1.723926 v 0.506429 h -1.116211 v 0.711068 h 0.946712 z"
         style="font-style:normal;font-variant:normal;font-weight:bold;font-stretch:normal;font-size:4.23333311px;line-height:6.61458302px;font-family:'Roboto Condensed';-inkscape-font-specification:'Roboto Condensed, Bold';fill:#ffffff;stroke-width:0.26458332"
         id="path4979" />
      <path
         d="m 15.174266,17.6 v -3.009635 h 0.795817 q 0.5271,0 0.839226,0.334863 0.314192,0.334864 0.320394,0.917774 v 0.487825 q 0,0.593246 -0.314193,0.932243 Q 16.503384,17.6 15.953547,17.6 Z m 0.607715,-2.503206 v 1.998844 h 0.181901 q 0.303858,0 0.427881,-0.159163 0.124024,-0.16123 0.130225,-0.553971 v -0.522966 q 0,-0.421679 -0.117823,-0.587044 -0.117822,-0.167432 -0.401009,-0.1757 z"
         style="font-style:normal;font-variant:normal;font-weight:bold;font-stretch:normal;font-size:4.23333311px;line-height:6.61458302px;font-family:'Roboto Condensed';-inkscape-font-specification:'Roboto Condensed, Bold';fill:#ffffff;stroke-width:0.26458332"
         id="path4981" />
      <path
         d="m 19.521288,14.590365 v 2.083594 q -0.0041,0.469222 -0.258382,0.719336 -0.254248,0.248047 -0.729671,0.248047 -0.483691,0 -0.740006,-0.252181 Q 17.53898,17.13698 17.53898,16.659489 v -2.069124 h 0.611849 v 2.071191 q 0,0.256316 0.08268,0.36587 0.08268,0.109554 0.299723,0.109554 0.217041,0 0.297656,-0.107487 0.08061,-0.109554 0.08268,-0.357601 v -2.081527 z"
         style="font-style:normal;font-variant:normal;font-weight:bold;font-stretch:normal;font-size:4.23333311px;line-height:6.61458302px;font-family:'Roboto Condensed';-inkscape-font-specification:'Roboto Condensed, Bold';fill:#ffffff;stroke-width:0.26458332"
         id="path4983" />
      <path
         d="m 20.59409,17.095638 h 1.066602 V 17.6 h -1.674317 v -3.009635 h 0.607715 z"
         style="font-style:normal;font-variant:normal;font-weight:bold;font-stretch:normal;font-size:4.23333311px;line-height:6.61458302px;font-family:'Roboto Condensed';-inkscape-font-specification:'Roboto Condensed, Bold';fill:#ffffff;stroke-width:0.26458332"
         id="path4985" />
      <path
         d="m 23.566519,16.297754 h -0.946712 v 0.797884 h 1.120345 V 17.6 h -1.72806 v -3.009635 h 1.723926 v 0.506429 h -1.116211 v 0.711068 h 0.946712 z"
         style="font-style:normal;font-variant:normal;font-weight:bold;font-stretch:normal;font-size:4.23333311px;line-height:6.61458302px;font-family:'Roboto Condensed';-inkscape-font-specification:'Roboto Condensed, Bold';fill:#ffffff;stroke-width:0.26458332"
         id="path4987" />
      <path
         d="m 25.358657,16.810385 q 0,-0.183969 -0.09508,-0.276986 -0.09302,-0.09509 -0.341065,-0.196371 -0.452685,-0.171565 -0.651123,-0.401009 -0.198437,-0.23151 -0.198437,-0.545703 0,-0.380338 0.268717,-0.609782 0.270785,-0.23151 0.686263,-0.23151 0.276986,0 0.494027,0.117822 0.217041,0.115755 0.332796,0.328662 0.117822,0.212907 0.117822,0.483692 H 25.36693 q 0,-0.21084 -0.09095,-0.320394 -0.08888,-0.111621 -0.258382,-0.111621 -0.159163,0 -0.248047,0.09508 -0.08888,0.09302 -0.08888,0.252181 0,0.124024 0.09922,0.22531 0.09922,0.09922 0.3514,0.206705 0.440283,0.159164 0.638721,0.390674 0.200504,0.231511 0.200504,0.589111 0,0.392741 -0.250114,0.613916 -0.250114,0.221176 -0.680061,0.221176 -0.291455,0 -0.531234,-0.11989 -0.239779,-0.119889 -0.376205,-0.343131 -0.134358,-0.223242 -0.134358,-0.5271 h 0.609782 q 0,0.260449 0.101285,0.378272 0.101286,0.117822 0.33073,0.117822 0.318326,0 0.318326,-0.33693 z"
         style="font-style:normal;font-variant:normal;font-weight:bold;font-stretch:normal;font-size:4.23333311px;line-height:6.61458302px;font-family:'Roboto Condensed';-inkscape-font-specification:'Roboto Condensed, Bold';fill:#ffffff;stroke-width:0.26458332"
         id="path4989" />
    </g>
  </g>
</svg>
